<?xml version="1.0" standalone="no"?>
<!DOCTYPE svg PUBLIC "-//W3C//DTD SVG 20010904//EN"
 "http://www.w3.org/TR/2001/REC-SVG-20010904/DTD/svg10.dtd">
<svg version="1.0" xmlns="http://www.w3.org/2000/svg"
 width="512.000000pt" height="512.000000pt" viewBox="0 0 512.000000 512.000000"
 preserveAspectRatio="xMidYMid meet">
<metadata>
Created by potrace 1.16, written by Peter Selinger 2001-2019
</metadata>
<g transform="translate(0.000000,512.000000) scale(0.100000,-0.100000)"
fill="#FFFFFF" stroke="none">
<path d="M2400 4854 c-915 -81 -1657 -630 -1985 -1468 -103 -262 -149 -520
-149 -826 0 -384 76 -708 246 -1043 327 -644 945 -1099 1658 -1221 738 -126
1487 111 2015 639 352 352 575 798 651 1305 25 162 25 483 0 645 -156 1022
-933 1800 -1946 1950 -103 15 -402 27 -490 19z m455 -349 c779 -120 1415 -696
1609 -1458 46 -181 60 -293 60 -487 0 -194 -14 -306 -60 -487 -50 -196 -135
-397 -238 -557 l-36 -57 -58 44 c-575 442 -1505 594 -2338 382 -300 -77 -625
-232 -821 -392 l-42 -35 -37 57 c-140 220 -248 516 -285 785 -19 135 -17 410
4 547 106 685 554 1261 1192 1528 178 75 382 125 610 149 75 8 340 -3 440 -19z
m110 -2885 c344 -51 632 -155 876 -318 157 -106 154 -95 59 -180 -304 -276
-659 -448 -1053 -509 -151 -23 -423 -23 -574 0 -394 61 -749 233 -1053 509
-95 85 -98 74 59 180 281 188 642 304 1051 339 153 12 477 2 635 -21z"/>
<path d="M2360 3980 c-282 -73 -509 -301 -580 -584 -27 -109 -27 -283 0 -392
56 -225 209 -416 415 -519 125 -63 220 -85 365 -85 145 0 240 22 365 85 154
77 273 196 350 350 63 125 85 220 85 365 0 145 -22 240 -85 365 -103 206 -294
359 -519 415 -107 27 -290 27 -396 0z m330 -327 c79 -22 126 -49 186 -105 105
-99 154 -210 154 -348 0 -263 -211 -473 -473 -472 -133 1 -248 53 -345 156
-83 88 -122 188 -122 316 0 132 39 229 129 323 128 135 291 180 471 130z"/>
</g>
</svg>
