<?xml version="1.0" standalone="no"?>
<!DOCTYPE svg PUBLIC "-//W3C//DTD SVG 20010904//EN"
 "http://www.w3.org/TR/2001/REC-SVG-20010904/DTD/svg10.dtd">
<svg version="1.0" xmlns="http://www.w3.org/2000/svg"
 width="512.000000pt" height="512.000000pt" viewBox="0 0 512.000000 512.000000"
 preserveAspectRatio="xMidYMid meet">
<metadata>
Created by potrace 1.16, written by Peter Selinger 2001-2019
</metadata>
<g transform="translate(0.000000,512.000000) scale(0.100000,-0.100000)"
fill="#FFFFFF" stroke="none">
<path d="M586 4210 c-64 -20 -106 -83 -106 -161 0 -65 28 -112 81 -139 38 -20
68 -20 1999 -20 1931 0 1961 0 1999 20 107 54 111 208 8 284 l-28 21 -1962 2
c-1085 1 -1975 -2 -1991 -7z"/>
<path d="M552 2700 c-48 -30 -72 -75 -72 -140 0 -65 24 -110 72 -140 33 -20
55 -20 2008 -20 1953 0 1975 0 2008 20 48 30 72 75 72 140 0 65 -24 110 -72
140 -33 20 -55 20 -2008 20 -1953 0 -1975 0 -2008 -20z"/>
<path d="M558 1210 c-104 -55 -107 -208 -5 -284 l28 -21 1979 0 1979 0 28 21
c50 37 73 81 73 142 0 68 -27 115 -81 142 -38 20 -68 20 -2001 20 -1919 -1
-1964 -1 -2000 -20z"/>
</g>
</svg>
