<?xml version="1.0" standalone="no"?>
<!DOCTYPE svg PUBLIC "-//W3C//DTD SVG 20010904//EN"
 "http://www.w3.org/TR/2001/REC-SVG-20010904/DTD/svg10.dtd">
<svg version="1.0" xmlns="http://www.w3.org/2000/svg"
 width="512.000000pt" height="512.000000pt" viewBox="0 0 512.000000 512.000000"
 preserveAspectRatio="xMidYMid meet">
<metadata>
Created by potrace 1.16, written by Peter Selinger 2001-2019
</metadata>
<g transform="translate(0.000000,512.000000) scale(0.100000,-0.100000)"
fill="#FFFFFF" stroke="none">
<path d="M2400 4854 c-915 -81 -1657 -630 -1985 -1468 -103 -262 -149 -520
-149 -826 0 -384 76 -708 246 -1043 327 -644 945 -1099 1658 -1221 738 -126
1487 111 2015 639 352 352 575 798 651 1305 25 162 25 483 0 645 -156 1022
-933 1800 -1946 1950 -103 15 -402 27 -490 19z m287 -344 c67 -77 236 -418
323 -649 45 -120 120 -358 120 -382 0 -5 -235 -9 -571 -9 l-571 0 7 33 c48
217 214 627 353 869 97 169 82 158 212 158 98 0 112 -2 127 -20z m-747 -202
c-112 -232 -206 -490 -266 -727 l-29 -111 -412 0 c-227 0 -413 3 -413 6 0 16
103 176 172 268 192 257 469 478 759 608 80 36 235 95 256 98 1 0 -29 -64 -67
-142z m1356 76 c321 -128 622 -360 833 -640 68 -92 171 -252 171 -268 0 -3
-186 -6 -413 -6 l-412 0 -29 113 c-60 237 -153 489 -266 724 l-68 141 48 -14
c26 -8 88 -30 136 -50z m-1716 -1251 c0 -5 -7 -73 -17 -153 -11 -101 -16 -229
-16 -420 0 -191 5 -319 16 -420 10 -80 17 -148 17 -152 0 -5 -202 -8 -450 -8
l-449 0 -17 56 c-58 202 -83 456 -66 667 13 142 36 276 66 381 l17 56 449 0
c248 0 450 -3 450 -7z m1624 -10 c21 -71 40 -333 40 -563 0 -230 -19 -492 -40
-562 -5 -17 -44 -18 -644 -18 -600 0 -639 1 -644 18 -21 70 -40 332 -40 562 0
230 19 492 40 563 5 16 44 17 644 17 600 0 639 -1 644 -17z m1252 -39 c30
-105 53 -239 66 -381 17 -211 -8 -465 -66 -667 l-17 -56 -449 0 c-248 0 -450
3 -450 8 0 4 7 72 17 152 11 101 16 229 16 420 0 191 -5 319 -16 420 -10 80
-17 148 -17 153 0 4 202 7 450 7 l449 0 17 -56z m-2782 -1545 c60 -236 153
-491 266 -726 l68 -141 -50 15 c-93 27 -285 114 -387 174 -285 168 -530 410
-699 691 -29 47 -52 89 -52 92 0 3 186 6 413 6 l412 0 29 -111z m1451 79 c-48
-218 -214 -628 -353 -870 -97 -169 -82 -158 -212 -158 -130 0 -115 -11 -212
158 -139 242 -305 652 -353 870 l-7 32 572 0 572 0 -7 -32z m1175 26 c0 -3
-23 -45 -52 -92 -169 -281 -414 -523 -699 -691 -102 -60 -294 -147 -387 -174
l-50 -15 68 141 c113 234 206 487 267 726 l28 111 412 0 c227 0 413 -3 413 -6z"/>
</g>
</svg>
